<?xml version="1.0" encoding="UTF-8"?>
<svg version="1.1" xmlns="http://www.w3.org/2000/svg" width="512" height="512">
<path d="M0 0 C37.80831211 21.57245568 82.70455746 25.3526654 124.48828125 14.53125 C136.82820335 11.15643028 148.37118995 5.99999033 159.4921875 -0.2578125 C160.36141846 -0.74620605 161.23064941 -1.23459961 162.1262207 -1.73779297 C163.81554586 -2.69558776 165.49823467 -3.66522549 167.17260742 -4.64892578 C175.85303955 -9.60487265 184.5460734 -12.03663855 194.55078125 -11.84375 C195.71782593 -11.82852295 195.71782593 -11.82852295 196.90844727 -11.81298828 C202.84625827 -11.65299296 208.02349073 -10.90906163 213.48828125 -8.46875 C214.3184375 -8.12457031 215.14859375 -7.78039062 216.00390625 -7.42578125 C240.7980839 4.35507801 259.25688124 33.53521567 272.48828125 56.53125 C272.85260254 57.1514502 273.21692383 57.77165039 273.59228516 58.41064453 C293.77016156 92.94312471 300.64229177 132.85211107 300.72851562 172.33544922 C300.73826704 175.02732739 300.76943113 177.71845435 300.80078125 180.41015625 C300.9128076 198.45085441 298.61466585 214.0903921 285.92578125 227.90625 C274.17642234 238.93699368 260.67649727 241.83594918 245.06025696 241.79867554 C243.5778374 241.80241429 242.09541981 241.80701671 240.61300534 241.81240618 C236.54739888 241.82462395 232.48187479 241.82437716 228.41625416 241.82201743 C224.02822742 241.82160895 219.64022698 241.83265145 215.25221252 241.84213257 C206.65781442 241.85873726 198.06344376 241.86424189 189.46903095 241.86535732 C182.48131012 241.86630813 175.49359833 241.87042006 168.50588036 241.87675858 C148.68651054 241.8943702 128.86716236 241.90359767 109.04778466 241.90209763 C107.44547281 241.90197776 107.44547281 241.90197776 105.81079102 241.90185547 C104.74127593 241.90177371 103.67176085 241.90169195 102.56983622 241.90160771 C85.24159323 241.90079502 67.9134372 241.91992857 50.58521936 241.9481322 C32.78497827 241.97687503 14.98477958 241.9906717 -2.8154853 241.98894465 C-12.80582178 241.98828119 -22.79606712 241.99375404 -32.78638268 242.01530075 C-41.29343539 242.03353103 -49.80035563 242.03784478 -58.30741944 242.0242819 C-62.64514323 242.01776134 -66.98261303 242.01760192 -71.3203125 242.0349884 C-75.29737504 242.05076491 -79.27398318 242.04780922 -83.25103495 242.03042014 C-84.68373704 242.02736025 -86.11647344 242.03094427 -87.54913505 242.04214029 C-102.89449044 242.15404396 -115.62440655 237.98781223 -127.13671875 227.65625 C-130.89778213 223.70145512 -133.47394733 219.47603665 -135.94921875 214.65625 C-136.44446045 213.70322998 -136.44446045 213.70322998 -136.94970703 212.73095703 C-142.55085202 201.07436174 -141.83836588 188.33577379 -141.76171875 175.71875 C-141.75828461 174.80296173 -141.75485046 173.88717346 -141.75131226 172.94363403 C-141.499887 115.88507523 -125.22330723 62.2749359 -86.86621094 19.05761719 C-85.95803316 18.0341984 -85.05507466 17.00612576 -84.15722656 15.97363281 C-59.47228125 -12.40783419 -33.19135119 -19.04111422 0 0 Z " fill="#378FE0" transform="translate(176.51171875,270.46875)"/>
<path d="M0 0 C1.05631622 0.00031723 1.05631622 0.00031723 2.13397217 0.00064087 C13.64481065 0.03507319 24.45201981 0.9942125 35.5 4.375 C37.32724609 4.91833984 37.32724609 4.91833984 39.19140625 5.47265625 C69.83713337 15.57376184 95.76104645 36.78022821 110.58251953 65.55224609 C125.14511303 94.48367851 129.21317432 126.8907236 120.5 158.375 C120.32339844 159.04096191 120.14679688 159.70692383 119.96484375 160.39306641 C114.61865671 180.05020413 103.36109062 196.70136269 89.5 211.375 C88.81421875 212.12523437 88.1284375 212.87546875 87.421875 213.6484375 C66.81123388 235.40411423 36.32725617 247.48868873 6.67578125 248.65234375 C-29.15821377 249.49697367 -60.34177148 238.08472727 -86.5 213.375 C-87.25023437 212.68921875 -88.00046875 212.0034375 -88.7734375 211.296875 C-104.57042309 196.3313097 -114.88720331 176.2078304 -120.5 155.375 C-120.76683594 154.38741699 -120.76683594 154.38741699 -121.0390625 153.37988281 C-125.85248064 134.46047541 -125.57078429 112.21331094 -120.5 93.375 C-120.31195801 92.66794922 -120.12391602 91.96089844 -119.93017578 91.23242188 C-115.17920771 74.07299863 -106.99667482 57.99354433 -95.5 44.375 C-94.25476563 42.88613281 -94.25476563 42.88613281 -92.984375 41.3671875 C-69.7251575 14.38873622 -35.36604235 -0.09812652 0 0 Z " fill="#52A6ED" transform="translate(255.5,-0.375)"/>
</svg>
