<?xml version="1.0" encoding="UTF-8"?>
<!DOCTYPE svg PUBLIC "-//W3C//DTD SVG 1.1//EN" "http://www.w3.org/Graphics/SVG/1.1/DTD/svg11.dtd">
<svg xmlns="http://www.w3.org/2000/svg" version="1.1" width="512px" height="512px" style="shape-rendering:geometricPrecision; text-rendering:geometricPrecision; image-rendering:optimizeQuality; fill-rule:evenodd; clip-rule:evenodd" xmlns:xlink="http://www.w3.org/1999/xlink">
<g><path style="opacity:0.989" fill="#00dfa5" d="M 403.5,159.5 C 390.872,145.703 378.038,132.036 365,118.5C 364.617,119.056 364.117,119.389 363.5,119.5C 354.955,89.0772 341.122,61.4106 322,36.5C 317.167,31.6667 312.333,26.8333 307.5,22C 322.76,24.0841 337.426,28.4174 351.5,35C 407.997,60.9967 449.33,102.163 475.5,158.5C 451.509,159.5 427.509,159.833 403.5,159.5 Z"/></g>
<g><path style="opacity:0.97" fill="#00d1b3" d="M 165.5,72.5 C 157.144,63.1468 148.811,53.8135 140.5,44.5C 160.249,33.3072 181.249,25.8072 203.5,22C 187.529,36.4846 174.863,53.3179 165.5,72.5 Z"/></g>
<g><path style="opacity:0.992" fill="#00d8ac" d="M 260.5,31.5 C 280.164,52.4972 300.164,73.1639 320.5,93.5C 330.201,114.44 337.534,136.274 342.5,159C 339.854,159.497 337.187,159.664 334.5,159.5C 299.204,122.369 263.704,85.3689 228,48.5C 226.906,46.9221 226.072,45.2554 225.5,43.5C 235.285,34.3486 246.951,30.3486 260.5,31.5 Z"/></g>
<g><path style="opacity:0.96" fill="#00dba9" d="M 260.5,31.5 C 275.406,34.7091 287.573,42.3758 297,54.5C 306.364,66.5596 314.198,79.5596 320.5,93.5C 300.164,73.1639 280.164,52.4972 260.5,31.5 Z"/></g>
<g><path style="opacity:0.986" fill="#00cbb9" d="M 140.5,44.5 C 148.811,53.8135 157.144,63.1468 165.5,72.5C 158.716,87.1862 152.716,102.186 147.5,117.5C 146.761,117.631 146.094,117.464 145.5,117C 130.267,102.269 115.6,87.1018 101.5,71.5C 113.243,60.7862 126.243,51.7862 140.5,44.5 Z"/></g>
<g><path style="opacity:0.998" fill="#00d5af" d="M 225.5,43.5 C 226.072,45.2554 226.906,46.9221 228,48.5C 263.704,85.3689 299.204,122.369 334.5,159.5C 328.5,159.5 322.5,159.5 316.5,159.5C 283.199,123.865 249.199,88.8649 214.5,54.5C 217.833,50.5 221.5,46.8333 225.5,43.5 Z"/></g>
<g><path style="opacity:0.997" fill="#00d1b2" d="M 214.5,54.5 C 249.199,88.8649 283.199,123.865 316.5,159.5C 295.833,159.5 275.167,159.5 254.5,159.5C 233.87,137.702 213.037,116.036 192,94.5C 191.517,93.552 191.351,92.552 191.5,91.5C 197.417,77.9833 205.083,65.65 214.5,54.5 Z"/></g>
<g><path style="opacity:0.991" fill="#00c8bc" d="M 101.5,71.5 C 115.6,87.1018 130.267,102.269 145.5,117C 146.094,117.464 146.761,117.631 147.5,117.5C 146.5,121.5 145.5,125.5 144.5,129.5C 143.761,129.631 143.094,129.464 142.5,129C 126.3,111.967 109.966,95.1339 93.5,78.5C 95.5491,75.4503 98.2157,73.117 101.5,71.5 Z"/></g>
<g><path style="opacity:0.992" fill="#00c5bf" d="M 93.5,78.5 C 109.966,95.1339 126.3,111.967 142.5,129C 143.094,129.464 143.761,129.631 144.5,129.5C 141.544,139.327 139.21,149.327 137.5,159.5C 130.5,159.5 123.5,159.5 116.5,159.5C 99.7771,142.114 83.4437,124.447 67.5,106.5C 75.0926,96.2381 83.7592,86.9048 93.5,78.5 Z"/></g>
<g><path style="opacity:0.993" fill="#00ccb8" d="M 191.5,91.5 C 191.351,92.552 191.517,93.552 192,94.5C 213.037,116.036 233.87,137.702 254.5,159.5C 225.831,159.667 197.165,159.5 168.5,159C 173.501,135.495 181.168,112.995 191.5,91.5 Z"/></g>
<g><path style="opacity:0.994" fill="#00c2c2" d="M 67.5,106.5 C 83.4437,124.447 99.7771,142.114 116.5,159.5C 112.5,159.5 108.5,159.5 104.5,159.5C 90.5037,144.171 76.1704,129.171 61.5,114.5C 63.016,111.467 65.016,108.8 67.5,106.5 Z"/></g>
<g><path style="opacity:0.992" fill="#00bfc4" d="M 61.5,114.5 C 76.1704,129.171 90.5037,144.171 104.5,159.5C 81.4903,159.833 58.4903,159.5 35.5,158.5C 42.2053,142.511 50.872,127.844 61.5,114.5 Z"/></g>
<g><path style="opacity:0.984" fill="#00dba9" d="M 403.5,159.5 C 393.5,159.5 383.5,159.5 373.5,159.5C 371.306,145.856 367.972,132.522 363.5,119.5C 364.117,119.389 364.617,119.056 365,118.5C 378.038,132.036 390.872,145.703 403.5,159.5 Z"/></g>
<g><path style="opacity:0.995" fill="#00b8cb" d="M 69.5,191.5 C 88.463,211.631 107.63,231.631 127,251.5C 127.183,254.365 127.683,257.031 128.5,259.5C 128.376,279.56 129.376,299.56 131.5,319.5C 129.5,319.5 127.5,319.5 125.5,319.5C 90.8703,283.036 56.037,246.702 21,210.5C 20.51,209.207 20.3433,207.873 20.5,206.5C 21.117,201.415 22.117,196.415 23.5,191.5C 38.8333,191.5 54.1667,191.5 69.5,191.5 Z"/></g>
<g><path style="opacity:0.986" fill="#00bdc6" d="M 69.5,191.5 C 90.1667,191.5 110.833,191.5 131.5,191.5C 129.094,214.099 128.094,236.765 128.5,259.5C 127.683,257.031 127.183,254.365 127,251.5C 107.63,231.631 88.463,211.631 69.5,191.5 Z"/></g>
<g><path style="opacity:0.999" fill="#00c5bf" d="M 203.5,191.5 C 244.167,234.167 284.833,276.833 325.5,319.5C 307.167,319.5 288.833,319.5 270.5,319.5C 234.503,281.503 198.17,243.836 161.5,206.5C 161.949,201.793 162.615,197.126 163.5,192.5C 176.817,191.501 190.15,191.167 203.5,191.5 Z"/></g>
<g><path style="opacity:1" fill="#00c8bc" d="M 203.5,191.5 C 208.167,191.5 212.833,191.5 217.5,191.5C 258.532,233.864 299.198,276.531 339.5,319.5C 334.833,319.5 330.167,319.5 325.5,319.5C 284.833,276.833 244.167,234.167 203.5,191.5 Z"/></g>
<g><path style="opacity:0.997" fill="#00cbb8" d="M 217.5,191.5 C 238.833,191.5 260.167,191.5 281.5,191.5C 304.132,216.466 327.466,240.8 351.5,264.5C 351.494,282.24 350.327,299.906 348,317.5C 345.544,319.321 342.711,319.988 339.5,319.5C 299.198,276.531 258.532,233.864 217.5,191.5 Z"/></g>
<g><path style="opacity:0.99" fill="#00d0b3" d="M 281.5,191.5 C 303.51,191.167 325.51,191.5 347.5,192.5C 350.964,216.353 352.297,240.353 351.5,264.5C 327.466,240.8 304.132,216.466 281.5,191.5 Z"/></g>
<g><path style="opacity:0.997" fill="#00d8ac" d="M 414.5,191.5 C 438.13,216.298 461.963,240.965 486,265.5C 489.073,269.061 491.906,272.728 494.5,276.5C 494.091,290.296 491.757,303.629 487.5,316.5C 451.833,279.833 416.167,243.167 380.5,206.5C 379.947,201.518 379.613,196.518 379.5,191.5C 391.167,191.5 402.833,191.5 414.5,191.5 Z"/></g>
<g><path style="opacity:0.996" fill="#00dba9" d="M 414.5,191.5 C 421.5,191.5 428.5,191.5 435.5,191.5C 455.164,212.497 475.164,233.164 495.5,253.5C 495.825,261.352 495.492,269.018 494.5,276.5C 491.906,272.728 489.073,269.061 486,265.5C 461.963,240.965 438.13,216.298 414.5,191.5 Z"/></g>
<g><path style="opacity:0.989" fill="#00dea7" d="M 435.5,191.5 C 452.833,191.5 470.167,191.5 487.5,191.5C 493.063,211.778 495.73,232.445 495.5,253.5C 475.164,233.164 455.164,212.497 435.5,191.5 Z"/></g>
<g><path style="opacity:0.997" fill="#00c2c2" d="M 161.5,206.5 C 198.17,243.836 234.503,281.503 270.5,319.5C 266.5,319.5 262.5,319.5 258.5,319.5C 231.871,291.036 205.038,262.703 178,234.5C 172.667,229.167 167.333,223.833 162,218.5C 161.617,219.056 161.117,219.389 160.5,219.5C 160.586,215.143 160.92,210.81 161.5,206.5 Z"/></g>
<g><path style="opacity:0.996" fill="#00d5af" d="M 380.5,206.5 C 416.167,243.167 451.833,279.833 487.5,316.5C 487.5,317.5 487.5,318.5 487.5,319.5C 481.833,319.5 476.167,319.5 470.5,319.5C 441.506,289.672 412.673,259.672 384,229.5C 383.79,231.058 383.29,232.391 382.5,233.5C 382.139,224.471 381.472,215.471 380.5,206.5 Z"/></g>
<g><path style="opacity:0.999" fill="#00b4ce" d="M 20.5,206.5 C 20.3433,207.873 20.51,209.207 21,210.5C 56.037,246.702 90.8703,283.036 125.5,319.5C 124.167,319.5 122.833,319.5 121.5,319.5C 90.9006,286.732 59.7339,254.398 28,222.5C 24.9274,218.939 22.0941,215.272 19.5,211.5C 19.2155,209.585 19.5489,207.919 20.5,206.5 Z"/></g>
<g><path style="opacity:0.996" fill="#00b2d1" d="M 19.5,211.5 C 22.0941,215.272 24.9274,218.939 28,222.5C 59.7339,254.398 90.9006,286.732 121.5,319.5C 98.5,319.5 75.5,319.5 52.5,319.5C 41.1986,306.531 29.1986,294.198 16.5,282.5C 15.4097,266.187 15.243,249.854 16,233.5C 16.5786,225.934 17.7453,218.601 19.5,211.5 Z"/></g>
<g><path style="opacity:0.997" fill="#00bfc4" d="M 258.5,319.5 C 239.5,319.5 220.5,319.5 201.5,319.5C 191.873,308.703 182.039,298.037 172,287.5C 168.239,283.23 164.072,279.563 159.5,276.5C 159.231,257.477 159.565,238.477 160.5,219.5C 161.117,219.389 161.617,219.056 162,218.5C 167.333,223.833 172.667,229.167 178,234.5C 205.038,262.703 231.871,291.036 258.5,319.5 Z"/></g>
<g><path style="opacity:0.994" fill="#00d2b2" d="M 470.5,319.5 C 449.833,319.5 429.167,319.5 408.5,319.5C 400.57,310.067 392.07,301.067 383,292.5C 382.506,290.866 382.34,289.199 382.5,287.5C 382.5,269.5 382.5,251.5 382.5,233.5C 383.29,232.391 383.79,231.058 384,229.5C 412.673,259.672 441.506,289.672 470.5,319.5 Z"/></g>
<g><path style="opacity:0.977" fill="#00bbc8" d="M 159.5,276.5 C 164.072,279.563 168.239,283.23 172,287.5C 182.039,298.037 191.873,308.703 201.5,319.5C 188.816,319.832 176.149,319.499 163.5,318.5C 161.302,304.6 159.969,290.6 159.5,276.5 Z"/></g>
<g><path style="opacity:0.971" fill="#00aed5" d="M 16.5,282.5 C 29.1986,294.198 41.1986,306.531 52.5,319.5C 42.8333,319.5 33.1667,319.5 23.5,319.5C 20.2694,307.346 17.9361,295.013 16.5,282.5 Z"/></g>
<g><path style="opacity:0.974" fill="#00cdb6" d="M 382.5,287.5 C 382.34,289.199 382.506,290.866 383,292.5C 392.07,301.067 400.57,310.067 408.5,319.5C 398.833,319.5 389.167,319.5 379.5,319.5C 380.119,308.652 381.119,297.985 382.5,287.5 Z"/></g>
<g><path style="opacity:0.989" fill="#00abd7" d="M 79.5,351.5 C 108.134,382.468 137.467,412.801 167.5,442.5C 176.959,459.814 188.959,475.314 203.5,489C 177.517,484.224 153.184,474.89 130.5,461C 87.5915,434.597 55.9248,398.43 35.5,352.5C 50.1515,351.501 64.8182,351.167 79.5,351.5 Z"/></g>
<g><path style="opacity:0.986" fill="#00b0d3" d="M 79.5,351.5 C 98.8333,351.5 118.167,351.5 137.5,351.5C 143.104,383.312 153.104,413.646 167.5,442.5C 137.467,412.801 108.134,382.468 79.5,351.5 Z"/></g>
<g><path style="opacity:0.997" fill="#00b8cb" d="M 224.5,351.5 C 252.141,381.142 280.141,410.476 308.5,439.5C 300.551,454.449 289.218,466.115 274.5,474.5C 241.17,439.17 207.503,404.17 173.5,369.5C 171.655,363.809 169.988,357.976 168.5,352C 187.164,351.5 205.83,351.333 224.5,351.5 Z"/></g>
<g><path style="opacity:0.999" fill="#00bbc8" d="M 224.5,351.5 C 227.5,351.5 230.5,351.5 233.5,351.5C 256.797,375.965 280.297,400.298 304,424.5C 306.741,427.729 309.241,431.062 311.5,434.5C 310.89,436.434 309.89,438.101 308.5,439.5C 280.141,410.476 252.141,381.142 224.5,351.5 Z"/></g>
<g><path style="opacity:0.996" fill="#00bec5" d="M 233.5,351.5 C 252.5,351.5 271.5,351.5 290.5,351.5C 303.613,365.402 316.946,379.068 330.5,392.5C 326.08,407.452 319.747,421.452 311.5,434.5C 309.241,431.062 306.741,427.729 304,424.5C 280.297,400.298 256.797,375.965 233.5,351.5 Z"/></g>
<g><path style="opacity:0.982" fill="#00c3c0" d="M 290.5,351.5 C 307.837,351.333 325.17,351.5 342.5,352C 339.181,365.79 335.181,379.29 330.5,392.5C 316.946,379.068 303.613,365.402 290.5,351.5 Z"/></g>
<g><path style="opacity:0.995" fill="#00cbb9" d="M 435.5,351.5 C 443.096,360.599 451.263,369.266 460,377.5C 460.483,378.448 460.649,379.448 460.5,380.5C 453.343,393.318 444.677,404.985 434.5,415.5C 433.761,415.631 433.094,415.464 432.5,415C 412.966,394.634 393.299,374.467 373.5,354.5C 373.5,353.5 373.5,352.5 373.5,351.5C 394.167,351.5 414.833,351.5 435.5,351.5 Z"/></g>
<g><path style="opacity:0.979" fill="#00d0b4" d="M 435.5,351.5 C 448.85,351.167 462.183,351.501 475.5,352.5C 471.273,362.355 466.273,371.689 460.5,380.5C 460.649,379.448 460.483,378.448 460,377.5C 451.263,369.266 443.096,360.599 435.5,351.5 Z"/></g>
<g><path style="opacity:0.995" fill="#00c8bc" d="M 373.5,354.5 C 393.299,374.467 412.966,394.634 432.5,415C 433.094,415.464 433.761,415.631 434.5,415.5C 432.167,418.5 429.5,421.167 426.5,423.5C 408.201,405.033 390.034,386.366 372,367.5C 371.517,366.552 371.351,365.552 371.5,364.5C 371.788,361.061 372.454,357.728 373.5,354.5 Z"/></g>
<g><path style="opacity:0.99" fill="#00c5bf" d="M 371.5,364.5 C 371.351,365.552 371.517,366.552 372,367.5C 390.034,386.366 408.201,405.033 426.5,423.5C 417.63,433.582 407.63,442.248 396.5,449.5C 383.076,436.414 370.41,422.748 358.5,408.5C 363.271,393.864 367.604,379.197 371.5,364.5 Z"/></g>
<g><path style="opacity:0.979" fill="#00b3cf" d="M 173.5,369.5 C 207.503,404.17 241.17,439.17 274.5,474.5C 258.971,482.007 243.971,480.84 229.5,471C 212.087,456.358 198.921,438.525 190,417.5C 183.07,401.977 177.57,385.977 173.5,369.5 Z"/></g>
<g><path style="opacity:0.984" fill="#00c2c2" d="M 358.5,408.5 C 370.41,422.748 383.076,436.414 396.5,449.5C 394.45,451.547 392.117,453.214 389.5,454.5C 377.806,442.473 366.139,430.473 354.5,418.5C 355.321,414.873 356.654,411.54 358.5,408.5 Z"/></g>
<g><path style="opacity:0.984" fill="#00bfc4" d="M 354.5,418.5 C 366.139,430.473 377.806,442.473 389.5,454.5C 377.807,463.019 365.14,470.019 351.5,475.5C 346.167,469.167 340.833,462.833 335.5,456.5C 342.38,444.073 348.713,431.407 354.5,418.5 Z"/></g>
<g><path style="opacity:0.939" fill="#01baca" d="M 335.5,456.5 C 340.833,462.833 346.167,469.167 351.5,475.5C 337.631,482.469 322.964,486.969 307.5,489C 317.82,478.859 327.154,468.026 335.5,456.5 Z"/></g>
</svg>
